<?xml version="1.0" standalone="yes"?>
<svg xmlns="http://www.w3.org/2000/svg" width="2031" height="474">
<path style="fill:#ffffff; stroke:none;" d="M1.25977 1.25977C-2.54231 5.06186 0 19.868 0 25L0 94L0 369L0 448C0 452.776 -2.68355 471.448 2.50146 473.499C12.7414 477.549 30.9768 474 42 474L136 474L456 474L1556 474L1911 474L1999 474C2005.27 474 2025.2 477.278 2029.74 472.74C2033.54 468.938 2031 454.132 2031 449L2031 380L2031 105L2031 26C2031 21.2243 2033.68 2.55243 2028.5 0.501465C2018.26 -3.54895 2000.02 0 1989 0L1895 0L1575 0L475 0L120 0L32 0C25.7292 0 5.79753 -3.27798 1.25977 1.25977z"/>
<path style="fill:#3d3d3d; stroke:none;" d="M432 377C428.003 372.091 418.001 371.999 412 371.184C396.227 369.04 380.61 365.322 365 362.2C327.98 354.796 287.989 342.254 250 345.139C231.611 346.535 215.253 357.375 197 359.661C180.159 361.77 162.402 353.034 146 358.742C120.961 367.456 99.7095 380.369 72 376.131C64.1649 374.933 49.6944 371.29 47.8333 362.014C45.9011 352.383 70.4218 347.586 77 346.198C110.903 339.04 145.429 333.929 179 326.559C199.56 322.046 218.799 310.687 240 309.14C261.751 307.552 282.903 317.267 305 313.176C372.187 300.739 435.864 278.003 502 262.136C529.645 255.504 558.495 259.257 586 251.978C593.827 249.906 607.649 247.651 613.171 241.218C620.713 232.432 607.829 202.621 603.435 194C585.788 159.379 551.889 151.411 525.962 125.92C510.514 110.73 504.69 92.4809 519.961 75.0186C569.833 17.9903 678.72 22.7977 746 33C696.894 56.8987 612.792 29.1798 575.908 82.0026C559.635 105.309 599.293 141.484 612.914 158C629.452 178.053 645.469 199.323 669 211.635C690.341 222.802 716.409 224.618 740 227.199C775.836 231.119 812.013 235.098 848 236.922C907.546 239.94 967.482 244.339 1027 237.682C1078.21 231.953 1128.75 217.558 1179 206.535C1236.6 193.898 1295.43 183.05 1352 166.258C1393.4 153.971 1434.1 137.316 1476 127C1470.57 114.816 1442.48 85.5758 1457.82 69.9208C1462.39 65.2617 1472.25 66.4516 1477.96 63.4362C1482.78 60.891 1486.16 53.1089 1492 52.9828C1499.4 52.823 1508.66 62.0771 1513.98 66.3987C1530.58 79.8755 1544.06 100.432 1564 109.258C1588.11 119.934 1617.77 113.519 1643 122.232C1667.55 130.713 1685.85 148.034 1709 158.521C1738.63 171.941 1782.6 177.836 1815 179C1806.35 186.345 1799.71 194.533 1789 199.088C1759.72 211.539 1722.14 200.514 1692 196.823C1682.64 195.677 1653.28 189.549 1651.32 205.082C1650.74 209.595 1662.07 210.874 1665 211.636C1680.92 215.777 1697.12 218.873 1713 223.165C1726.32 226.763 1738.92 231.874 1752 236C1727.9 260.104 1697.87 242.643 1667 241.078C1609.8 238.178 1512.42 232.849 1471.42 282.019C1454.39 302.442 1475.08 319.551 1496 319.981C1515.31 320.379 1534.67 316.483 1554 318.218C1570.73 319.718 1586.27 327.07 1603 327.922C1635.43 329.573 1666.6 326.908 1699 332.633C1753 342.173 1807.78 365.96 1863 368C1828.19 398.053 1795.22 383.358 1755 373.897C1710.57 363.444 1658.65 353.311 1613 358.323C1587.48 361.124 1605.95 367.983 1599.4 383.844C1596.36 391.208 1566.54 412.297 1558.44 412.21C1530.77 411.911 1543.2 380.969 1546 368C1515.74 372.058 1486.11 379.431 1456 384C1462.17 387.363 1472.41 383.517 1479 382.2C1496.98 378.608 1514.99 376.214 1533 373C1526.48 393.574 1530.1 421.339 1559 419.883C1576.28 419.013 1602.47 400.316 1612.51 386.856C1616.13 382.002 1610.42 369.598 1616.29 367.501C1628.74 363.059 1649.08 367.717 1662 368.882C1702.08 372.497 1740.9 381.171 1780 390.206C1807.97 396.671 1838.72 402.851 1862.78 382.183C1866.77 378.753 1874.88 373.545 1876.24 368.24C1877.72 362.479 1856.97 358.996 1853 358.12C1825.9 352.131 1798.09 350.321 1771 344.022C1736.52 336.007 1702.43 325.613 1667 323.136C1644.37 321.554 1621.48 326.506 1599 324.213C1585 322.785 1572.06 315.948 1558 314.328C1533.27 311.478 1495.28 324.125 1473.5 308.439C1459.85 298.606 1489.08 274.88 1496 270.863C1529.24 251.561 1572.23 248.034 1610 248C1633.44 247.979 1656.66 246.554 1680 250.46C1700.04 253.814 1724.94 262.275 1745 255.088C1750.95 252.958 1770.73 235.745 1761.48 228.674C1748.14 218.476 1719.39 213.493 1703 211C1737.59 202.3 1769.55 222.785 1805 204.742C1814.66 199.826 1825.73 192.21 1828.53 181.019C1830.46 173.309 1822.19 169.664 1815.99 167.849C1799.96 163.156 1782.48 162.347 1766 159.999C1723.8 153.988 1697.19 129.702 1658.63 115.648C1631.4 105.725 1603.97 108.361 1576.08 103.162C1543.69 97.1229 1523.97 39.2614 1487 46.5397C1479.74 47.9698 1475.4 55.7095 1469.68 59.7159C1464.34 63.4558 1454.65 59.6714 1450.26 64.2412C1435.82 79.2722 1462.77 114.768 1470 126C1446.28 127.713 1421.63 137.32 1398.94 144.009C1359.79 155.554 1320.06 166.025 1280 173.657C1190.6 190.689 1100.68 217.21 1010 225.785C937.055 232.683 863.926 227.608 791 223.599C751.847 221.446 701.695 222.706 667.58 201.095C646.294 187.61 630.422 164.744 615.147 145.22C604.511 131.624 579.73 109.425 582.841 90.0193C584.599 79.0497 609.631 68.584 619 65.3863C657.976 52.0832 701.948 46.2788 743 44.989C757.875 44.5216 789.993 48.7304 794 32C708.426 15.0952 590.707 0.968109 517.019 60.4833C512.217 64.3615 507.621 68.8464 504.184 74.0007C469.403 126.161 564.209 155.77 588.655 185C595.266 192.904 618.681 228.373 609.1 239.079C603.507 245.328 583.804 244.766 576 245.011C548.268 245.882 520.332 245.06 493 250.602C430.496 263.275 370.516 289.116 308 302.776C282.337 308.383 256.295 301.662 231 307.012C209.4 311.58 190.063 322.238 168 325.28C134.46 329.904 101.876 336.321 69 345.439C60.1896 347.882 37.526 352.716 43.8292 366.683C46.332 372.23 56.7809 375.008 62 377.115C84.8472 386.339 114.15 380.258 136 370.971C159.662 360.913 177.074 369.783 202 366.661C220.207 364.381 236.685 353.221 255 352.085C286.352 350.142 321.237 362.017 352 367.562C378.248 372.293 406.242 371.473 432 377z"/>
</svg>
