<?xml version="1.0" standalone="no"?>
<svg xmlns:xlink="http://www.w3.org/1999/xlink" id="wave" style="transform:rotate(0deg); transition: 0.3s" viewBox="0 0 1440 140" version="1.1" xmlns="http://www.w3.org/2000/svg"><defs><linearGradient id="sw-gradient-0" x1="0" x2="0" y1="1" y2="0"><stop stop-color="rgba(235, 235, 235, 1)" offset="0%"/><stop stop-color="rgba(235, 235, 235, 1)" offset="100%"/></linearGradient></defs><path style="transform:translate(0, 0px); opacity:1" fill="url(#sw-gradient-0)" d="M0,0L15,16.3C30,33,60,65,90,70C120,75,150,51,180,53.7C210,56,240,84,270,88.7C300,93,330,75,360,58.3C390,42,420,28,450,37.3C480,47,510,79,540,77C570,75,600,37,630,21C660,5,690,9,720,16.3C750,23,780,33,810,46.7C840,61,870,79,900,72.3C930,65,960,33,990,30.3C1020,28,1050,56,1080,56C1110,56,1140,28,1170,30.3C1200,33,1230,65,1260,81.7C1290,98,1320,98,1350,91C1380,84,1410,70,1440,53.7C1470,37,1500,19,1530,9.3C1560,0,1590,0,1620,18.7C1650,37,1680,75,1710,91C1740,107,1770,103,1800,84C1830,65,1860,33,1890,28C1920,23,1950,47,1980,46.7C2010,47,2040,23,2070,25.7C2100,28,2130,56,2145,70L2160,84L2160,140L2145,140C2130,140,2100,140,2070,140C2040,140,2010,140,1980,140C1950,140,1920,140,1890,140C1860,140,1830,140,1800,140C1770,140,1740,140,1710,140C1680,140,1650,140,1620,140C1590,140,1560,140,1530,140C1500,140,1470,140,1440,140C1410,140,1380,140,1350,140C1320,140,1290,140,1260,140C1230,140,1200,140,1170,140C1140,140,1110,140,1080,140C1050,140,1020,140,990,140C960,140,930,140,900,140C870,140,840,140,810,140C780,140,750,140,720,140C690,140,660,140,630,140C600,140,570,140,540,140C510,140,480,140,450,140C420,140,390,140,360,140C330,140,300,140,270,140C240,140,210,140,180,140C150,140,120,140,90,140C60,140,30,140,15,140L0,140Z"/></svg>